# xmcd
#
# Track frame offsets: 
#        150
#        10601
#        22919
#        37480
#        51198
#        64497
#        82782
#        92201
#        104855
#        115753
#        127629
#        139490
#        150202
#        158932
#        170652
#        182881
#        193343
#        205072
#        220025
#        231160
#
# Disc length: 3280 seconds
#
# Revision: 1
# Processed by: cddbd v1.5.2PL0 Copyright (c) Steve Scherf et al.
# Submitted via: ExactAudioCopyFreeDBPlugin 1.0
#
DISCID=170cce14
DTITLE=Various Artist - The Ultimate Country Gold Collection Disc 5
DYEAR=2000
DGENRE=Country
TTITLE0=Patsy Cline - Three Cigarettes in an Ashtray
TTITLE1=Tommy Cash - Six White Horses
TTITLE2=Boxcar Willie - Freightliner Fever
TTITLE3=Freddy Fender - The Rains Came
TTITLE4=Donna Fargo - Somebody Special
TTITLE5=Kenny Rogers - The King of Oak Street
TTITLE6=George Jones - Old Brush Arbors
TTITLE7=Claude King - Wolverton Mountain
TTITLE8=Billie Jo Spears - If It Ain't Love
TTITLE9=Roy Drusky - Luckenbach Texas
TTITLE10=Willie Nelson - Night Life
TTITLE11=Jerry Wallace - Primrose Lane
TTITLE12=Patsy Cline - Come On In
TTITLE13=Cowboy Copas - Memories Of You
TTITLE14=Alabama - Loving You is Killing Me
TTITLE15=Ray Price - Little Miss Blue Eyes
TTITLE16=Kenny Rogers - Elvira
TTITLE17=Willie Nelson - Face of a Fighter
TTITLE18=Ferlin Husky - San Antonio Rose
TTITLE19=Donna Fargo - That Was Yesterday
EXTD=MasterSong Cat: 60000/5 Bar: 9316797600004
EXTT0=
EXTT1=
EXTT2=
EXTT3=
EXTT4=
EXTT5=
EXTT6=
EXTT7=
EXTT8=
EXTT9=
EXTT10=
EXTT11=
EXTT12=
EXTT13=
EXTT14=
EXTT15=
EXTT16=
EXTT17=
EXTT18=
EXTT19=
PLAYORDER=
